<svg xmlns="http://www.w3.org/2000/svg" aria-hidden="true" style="position:absolute;width:0;height:0;overflow:hidden">
  <defs>
    <symbol id="icon-facebook-1" viewBox="0 0 16 16">
      <path d="M10.66 2.66h1.47V.1C11.87.08 11 0 10 0 7.9 0 6.45 1.32 6.45 3.76V6H4.12v2.84h2.33V16H9.3V8.84h2.23L11.88 6H9.3V4.04c0-.82.22-1.38 1.36-1.38z"/>
    </symbol>
    <symbol id="icon-instagram-2" viewBox="0 0 16 16">
      <path d="M15.98 4.7a5.83 5.83 0 0 0-.37-1.94 3.9 3.9 0 0 0-.92-1.42c-.4-.4-.89-.72-1.42-.92-.5-.2-1.09-.33-1.94-.37C10.47.01 10.2 0 8.03 0s-2.45 0-3.3.05C3.88.08 3.3.22 2.8.42a3.9 3.9 0 0 0-1.42.92c-.4.4-.72.89-.92 1.42-.2.51-.34 1.1-.37 1.94C.04 5.56.03 5.83.03 8s0 2.45.04 3.3c.04.85.18 1.43.38 1.94.2.54.51 1.02.92 1.42.4.4.89.72 1.42.92.5.2 1.09.34 1.94.37.85.04 1.12.05 3.3.05s2.44 0 3.3-.05a5.83 5.83 0 0 0 1.93-.37 4.1 4.1 0 0 0 2.35-2.34c.2-.5.33-1.1.37-1.94.03-.85.04-1.13.04-3.3s0-2.44-.04-3.3zm-1.44 6.54a4.4 4.4 0 0 1-.27 1.48c-.27.7-.82 1.25-1.52 1.52-.28.1-.7.24-1.49.28-.84.03-1.1.04-3.23.04s-2.39 0-3.23-.04a4.37 4.37 0 0 1-1.49-.28 2.45 2.45 0 0 1-.91-.6 2.48 2.48 0 0 1-.6-.92 4.4 4.4 0 0 1-.28-1.48c-.03-.84-.04-1.1-.04-3.23s0-2.4.04-3.23c.04-.79.17-1.2.28-1.49.13-.35.33-.66.6-.92.26-.26.57-.47.92-.6.28-.1.7-.24 1.48-.27.85-.04 1.1-.05 3.24-.05 2.13 0 2.39.01 3.23.05.78.03 1.2.17 1.48.27.35.13.66.34.92.6.27.26.47.57.6.92.1.28.24.7.27 1.49.04.84.05 1.1.05 3.23s0 2.38-.05 3.23z"/>
      <path d="M8.03 3.9a4.11 4.11 0 1 0 0 8.21 4.11 4.11 0 0 0 0-8.22zm0 6.77a2.67 2.67 0 1 1 0-5.34 2.67 2.67 0 0 1 0 5.34zM13.26 3.73a.96.96 0 1 1-1.92 0 .96.96 0 0 1 1.92 0z"/>
    </symbol>
    <symbol id="icon-linkedin-1" viewBox="0 0 16 16">
      <path d="M16 16v-5.87c0-2.87-.62-5.08-3.97-5.08-1.62 0-2.7.88-3.14 1.72h-.05V5.32H5.66V16h3.31V10.7c0-1.4.27-2.74 2-2.74 1.69 0 1.72 1.59 1.72 2.83V16h3.3zM.26 5.32h3.32V16H.26V5.32zM1.92 0C.86 0 0 .86 0 1.92s.86 1.94 1.92 1.94 1.92-.88 1.92-1.94S2.98 0 1.92 0z"/>
    </symbol>
    <symbol id="icon-twitter-1" viewBox="0 0 16 16">
      <path d="M16 3.04c-.6.26-1.23.43-1.89.52.68-.4 1.2-1.05 1.44-1.82-.63.38-1.33.65-2.08.8a3.29 3.29 0 0 0-5.6 2.99A9.28 9.28 0 0 1 1.11 2.1a3.3 3.3 0 0 0 1.01 4.38 3.24 3.24 0 0 1-1.48-.4v.03a3.3 3.3 0 0 0 2.63 3.23 3.27 3.27 0 0 1-1.48.05 3.31 3.31 0 0 0 3.06 2.28A6.6 6.6 0 0 1 0 13.03a9.23 9.23 0 0 0 5.03 1.47c6.04 0 9.34-5 9.34-9.33l-.01-.43A6.54 6.54 0 0 0 16 3.04z"/>
    </symbol>
    <symbol id="icon-antenna-1" viewBox="0 0 64 64">
      <path fill="" d="M61.55 44.2 44.66 27.18l1.87-9.23c.49.2 1 .3 1.52.3h.01a4.32 4.32 0 1 0-4.01-2.88l-9.92 1.22L17.94.32c-.2-.2-.47-.32-.75-.32s-.55.11-.75.3l-3.02 3.02c-.42.41-.42 1.09 0 1.5l1.63 1.66a29.88 29.88 0 0 0 5.04 35.32c.08.08.18.15.29.2-.07.36-.1.72-.1 1.1v12.36H7.47a5.34 5.34 0 0 0-5.34 5.34v2.13c0 .59.48 1.07 1.07 1.07h49.06c.6 0 1.07-.48 1.07-1.07V60.8a5.34 5.34 0 0 0-5.33-5.34H35.2v-5.48a29.7 29.7 0 0 0 20.18-2.93l1.63 1.65c.2.2.47.32.76.32.28 0 .54-.11.74-.31l3.03-3c.41-.43.41-1.1 0-1.52zM46.56 12.46a2.13 2.13 0 1 1 1.5 3.64 2.13 2.13 0 0 1-1.5-3.64zm-2.51 7-1.2 5.9L40.5 23l3.55-3.53zm-1.21-1.8L39 21.5l-2.97-2.99 6.8-.83zM48 57.6a3.2 3.2 0 0 1 3.2 3.2v1.07H4.28V60.8a3.2 3.2 0 0 1 3.2-3.2H48zm-14.93-4.27v2.14H22.4v-2.14h10.67zM22.4 51.2v-8.1c0-2.6 2.4-4.7 5.33-4.7s5.33 2.1 5.33 4.7v8.1H22.41zm12.8-3.4v-4.7c0-3.77-3.35-6.83-7.47-6.83a7.6 7.6 0 0 0-6.56 3.57 27.74 27.74 0 0 1-4.56-31.78l37.2 37.42a27.64 27.64 0 0 1-18.61 2.33zm22.58-1.36L15.67 4.08l1.51-1.5 15.87 15.96.02.01L59.3 44.94l-1.51 1.5z" style="fill:var(--color1, #2e2f42)"/>
      <path fill="" d="M27.75 40.53a3.2 3.2 0 0 0-.02 6.4h.01a3.2 3.2 0 0 0 .01-6.4zm.75 3.96a1.07 1.07 0 1 1-.76-1.82 1.07 1.07 0 0 1 .75 1.82z" style="fill:var(--color2, #4d5ae5)"/>
    </symbol>
    <symbol id="icon-astronaut-1" viewBox="0 0 64 64">
      <path fill="" d="M63.95 9.05a1.07 1.07 0 0 0-.86-.73l-3.82-.55-1.71-3.46c-.36-.73-1.56-.73-1.92 0l-1.7 3.46-3.83.55a1.07 1.07 0 0 0-.59 1.82l2.77 2.7-.66 3.8a1.07 1.07 0 0 0 1.55 1.13l3.42-1.8 3.42 1.8a1.07 1.07 0 0 0 1.12-.08c.33-.24.5-.65.42-1.05l-.65-3.8 2.77-2.7c.29-.28.39-.7.27-1.1zm-4.93 2.65c-.25.25-.36.6-.3.95l.38 2.22-2-1.05a1.07 1.07 0 0 0-1 0l-2 1.05.38-2.22c.06-.35-.05-.7-.3-.95l-1.62-1.58 2.24-.32c.34-.05.64-.27.8-.59l1-2.02 1 2.02c.16.32.46.54.8.59l2.24.32-1.62 1.58zM52.27 41.04h-2.14v2.14h2.14v-2.14zM52.27 45.31h-2.14v2.13h2.14v-2.13zM54.4 43.18h-2.13v2.13h2.13v-2.13zM50.13 43.18H48v2.13h2.13v-2.13zM44.8 52.78h-2.13v2.13h2.13v-2.13zM44.8 57.05h-2.13v2.13h2.13v-2.13zM46.93 54.91H44.8v2.13h2.13v-2.13z" style="fill:var(--color2, #4d5ae5)"/>
      <path fill="" d="M42.67 54.91h-2.14v2.13h2.14v-2.13zM32 48.51h-2.13v2.13H32v-2.13zM32 52.78h-2.13v2.13H32v-2.13zM34.13 50.65H32v2.13h2.13v-2.13zM29.87 50.65h-2.14v2.13h2.14v-2.13zM11.73 12.24H9.6v2.14h2.13v-2.14zM11.73 16.51H9.6v2.13h2.13v-2.13zM13.87 14.38h-2.14v2.13h2.14v-2.13zM9.6 14.38H7.47v2.13H9.6v-2.13z" style="fill:var(--color2, #4d5ae5)"/>
      <path fill="" d="M49.43 28.32a3.54 3.54 0 0 0-2.38-1.41 3.55 3.55 0 0 0-2.68.7l-2.5 1.92-3.8 2.84-2.71-1.08a13.87 13.87 0 0 0 8.22-12.64c0-7.65-6.24-13.87-13.92-13.87S15.74 11 15.74 18.65c0 2.77.83 5.34 2.24 7.51l-5.53-.04h-.06c-.1 0-.2.03-.3.07l-.08.02-.04.02-6.47 3.19-3.79 1.82a3.56 3.56 0 0 0 3.55 6.18l2.78-1.47 4.52-2.34 2.72-.02L4.4 44.43l-2.68 2.66a3.3 3.3 0 0 0 0 4.72 3.34 3.34 0 0 0 4.71 0l2.63-2.62 3.48-2.6 1.8 1.8-3.52 3.5-2.68 2.67a3.3 3.3 0 0 0 0 4.71 3.34 3.34 0 0 0 4.72 0l6.97-6.93 2.02-2-.01-.01.04-.03 10.34-11.32 6.94.99a.95.95 0 0 0 .52-.07l.1-.04.12-.06 6.42-4.26.06-.06.08-.05 2.55-2.39a3.56 3.56 0 0 0 .42-4.72zM4.26 35.54c-.35.19-.74.22-1.12.1a1.43 1.43 0 0 1-.42-2.52l2.63-1.26.9 2.62-1.99 1.06zm7-3.65-3.1 1.6-.88-2.57 4.05-2-.08 2.96zm30.2-13.25c0 1.84-.44 3.57-1.2 5.12l-8.37-3.8a3.73 3.73 0 0 0-1.57-2.77l2.92-9.72a11.76 11.76 0 0 1 8.21 11.17zm-23.58 0A11.78 11.78 0 0 1 31.15 7.01l-2.86 9.51-.11-.01c-2.07 0-3.75 1.67-3.75 3.73a3.74 3.74 0 0 0 6.98 1.85l7.73 3.5a11.78 11.78 0 0 1-21.26-6.95zm11.9 1.6a1.6 1.6 0 0 1-3.22 0c0-.88.73-1.6 1.62-1.6s1.6.72 1.6 1.6zM4.94 50.3c-.47.47-1.24.47-1.7 0a1.19 1.19 0 0 1 0-1.69l1.91-1.91 1.7 1.7-1.91 1.9zm6.43 7.47c-.48.47-1.24.47-1.71 0a1.19 1.19 0 0 1 0-1.69l1.92-1.92 1.7 1.7-1.91 1.9zm6.96-6.94-3.53 3.52-1.7-1.7 3.52-3.5c.08-.08.13-.18.18-.27l.06-.08c.03-.09.03-.18.05-.26l.02-.15c0-.07-.02-.14-.04-.2-.01-.07-.01-.14-.03-.2-.05-.1-.11-.19-.19-.27-.02-.03-.02-.06-.05-.08l-3.21-3.2c-.04-.04-.08-.05-.12-.08a.99.99 0 0 0-.17-.12.99.99 0 0 0-.19-.06 1.01 1.01 0 0 0-.2-.04l-.2.01a.98.98 0 0 0-.2.04.93.93 0 0 0-.2.1c-.03.01-.08.02-.12.05l-3.54 2.65-1.8-1.8 4.8-4.77L20.16 49l-1.85 1.84zM31.96 36.8h-.1a1.05 1.05 0 0 0-.76.28l-.08.06-9.4 10.29-8.65-8.52 5.66-5.63a1.07 1.07 0 0 0-.76-1.82l-4.43.02.05-3.21 6.21.05a13.9 13.9 0 0 0 12.52 3.96c.08.06.16.13.26.17l4.82 1.92.3 1.51.36 1.78-6-.86zm8.08.36-.63-3.12 2.9-2.16 1.9 2.51-4.17 2.77zm7.5-5.67-1.67 1.57-1.86-2.47 1.66-1.27a1.44 1.44 0 0 1 1.88 2.18z" style="fill:var(--color1, #2e2f42)"/>
      <path fill="" d="m27.2 37.09-4.28-4.27a1.07 1.07 0 0 0-1.5 0l-4.3 4.27a1.07 1.07 0 0 0 0 1.51l4.3 4.27a1.06 1.06 0 0 0 1.5 0l4.28-4.27a1.07 1.07 0 0 0 0-1.51zm-5.03 3.52-2.78-2.77 2.78-2.76 2.77 2.76-2.77 2.77zM34.33 10.14l-.52 2.07c.15.04 3.48.9 3.48 4.3h2.13c0-4.03-3.33-5.93-5.1-6.37zM39.42 18.64H37.3v2.14h2.13v-2.14z" style="fill:var(--color1, #2e2f42)"/>
    </symbol>
    <symbol id="icon-clock-1" viewBox="0 0 64 64">
      <path fill="" d="M62.6 30.6a30.6 30.6 0 1 0-39.93 29.17 1.35 1.35 0 0 0 1.06-.13c.27-.16.48-.42.57-.72l7.73-24.5a3.83 3.83 0 1 0-1.68-7.27l-10.21-10.2a1.28 1.28 0 0 0-1.8 1.8l10.2 10.21a3.75 3.75 0 0 0 1.07 4.62l-7.36 23.35a28.09 28.09 0 1 1 21.14-.7l-.8-3.75a1.27 1.27 0 0 0-2.1-.69l-7.67 6.85a1.28 1.28 0 0 0 .46 2.17l9.8 3.13a1.28 1.28 0 0 0 1.64-1.48l-.79-3.68A30.5 30.5 0 0 0 62.6 30.6zm-30.62-1.27a1.28 1.28 0 1 1 0 2.55 1.28 1.28 0 0 1 0-2.55zm4.2 29.73 4.37-3.9 1.2 5.68-5.56-1.79z" style="fill:var(--color1, #2e2f42)"/>
      <path fill="" d="M30.7 6.37v2.55a1.27 1.27 0 1 0 2.56 0V6.37a1.28 1.28 0 0 0-2.55 0zM7.75 29.33a1.27 1.27 0 1 0 0 2.55h2.55a1.27 1.27 0 1 0 0-2.55H7.75zM56.22 31.88a1.27 1.27 0 1 0 0-2.55h-2.55a1.28 1.28 0 0 0 0 2.55h2.55z" style="fill:var(--color2, #4d5ae5)"/>
    </symbol>
    <symbol id="icon-diagram-1" viewBox="0 0 64 64">
      <path fill="" d="M29.85 29.93h2.13v9.6h-2.13v-9.6zM38.38 34.2h2.13v5.33h-2.13v-5.34zM21.32 37.4h2.13v2.12h-2.13V37.4zM14.93 36.33h2.13v3.2h-2.13v-3.2z" style="fill:var(--color2, #4d5ae5)"/>
      <path fill="" d="M3.2 56.58h51.17a3.2 3.2 0 0 0 3.2-3.2v-4.26a3.2 3.2 0 0 0-3.2-3.2h-1.06V19.33l6.05-5.73a3.22 3.22 0 1 0-1.5-1.53L53.3 16.4v-2.46a3.2 3.2 0 0 0-3.2-3.2H7.47a3.2 3.2 0 0 0-3.2 3.2v31.98H3.2a3.2 3.2 0 0 0-3.2 3.2v4.26a3.2 3.2 0 0 0 3.2 3.2zm57.57-46.9a1.07 1.07 0 1 1 0 2.12 1.07 1.07 0 0 1 0-2.13zM6.4 13.93c0-.6.47-1.07 1.06-1.07h42.65c.59 0 1.06.48 1.06 1.07v4.48l-2.13 2.02v-4.37c0-.59-.48-1.07-1.06-1.07H9.6c-.6 0-1.07.48-1.07 1.07v26.65c0 .6.48 1.07 1.06 1.07h38.39c.58 0 1.06-.48 1.06-1.07V23.37l2.13-2.02v24.57H6.4V13.94zM16 27.8a3.2 3.2 0 1 0 2.2 5.5l3.71 1.85c.43.22.96.12 1.28-.24l7.87-8.87 7.75 5.8c.41.32 1 .29 1.37-.07l6.73-6.38v16.27H10.66V17.14h36.25v5.32l-7.54 7.14-7.81-5.85a1.07 1.07 0 0 0-1.44.14l-7.98 8.98-2.99-1.49c.02-.13.04-.26.04-.39a3.2 3.2 0 0 0-3.2-3.2zm1.06 3.2a1.07 1.07 0 1 1-2.13 0 1.07 1.07 0 0 1 2.13 0zm6.4 17.05H34.1v1.07c0 .59-.47 1.07-1.06 1.07h-8.53c-.59 0-1.07-.48-1.07-1.07v-1.07zM2.12 49.12c0-.59.48-1.07 1.07-1.07h18.12v1.07a3.2 3.2 0 0 0 3.2 3.2h8.53a3.2 3.2 0 0 0 3.2-3.2v-1.07h18.12c.59 0 1.07.48 1.07 1.07v4.26c0 .6-.48 1.07-1.07 1.07H3.2c-.6 0-1.07-.48-1.07-1.07v-4.26z" style="fill:var(--color1, #2e2f42)"/>
    </symbol>
    <symbol id="icon-close-black-18dp-2-1" viewBox="0 0 8 8">
      <path d="M8 0.806l-0.806-0.806-3.194 3.194-3.194-3.194-0.806 0.806 3.194 3.194-3.194 3.194 0.806 0.806 3.194-3.194 3.194 3.194 0.806-0.806-3.194-3.194 3.194-3.194z"></path>
    </symbol>
    <symbol id="icon-Vector" viewBox="0 0 10 8">
<path d="M8.446 0.255c0.173-0.165 0.403-0.257 0.641-0.255s0.467 0.097 0.637 0.265c0.17 0.168 0.269 0.396 0.275 0.636s-0.080 0.473-0.242 0.649l-4.895 6.154c-0.084 0.091-0.186 0.164-0.299 0.215s-0.235 0.078-0.359 0.080c-0.124 0.002-0.247-0.020-0.361-0.067s-0.219-0.116-0.306-0.204l-3.246-3.263c-0.090-0.085-0.163-0.187-0.213-0.3s-0.077-0.236-0.080-0.36 0.021-0.248 0.067-0.363c0.046-0.115 0.115-0.22 0.203-0.308s0.191-0.157 0.306-0.204 0.237-0.069 0.361-0.067c0.124 0.002 0.245 0.029 0.358 0.080s0.214 0.123 0.299 0.214l2.569 2.581 4.26-5.457c0.008-0.009 0.016-0.019 0.025-0.027h-0.001z"></path>
</symbol>
<symbol id="icon-person-black-18dp-1" viewBox="0 0 18 18">
<path d="M9 9c1.657 0 3-1.342 3-3s-1.342-3-3-3c-1.657 0-3 1.342-3 3s1.342 3 3 3zM9 10.5c-2.003 0-6 1.005-6 3v0.75c0 0.413 0.337 0.75 0.75 0.75h10.5c0.413 0 0.75-0.338 0.75-0.75v-0.75c0-1.995-3.997-3-6-3z"></path>
</symbol>
<symbol id="icon-phone-black-18dp-1" viewBox="0 0 18 24">
<path d="M14.726 13.865l-1.838-0.21c-0.441-0.051-0.876 0.101-1.187 0.412l-1.332 1.332c-2.048-1.042-3.727-2.714-4.769-4.769l1.339-1.339c0.311-0.311 0.463-0.745 0.413-1.187l-0.21-1.824c-0.087-0.731-0.702-1.281-1.44-1.281h-1.252c-0.818 0-1.498 0.68-1.447 1.498 0.384 6.18 5.326 11.116 11.499 11.499 0.818 0.051 1.498-0.63 1.498-1.447v-1.252c0.007-0.731-0.543-1.346-1.274-1.433z"></path>
</symbol>
<symbol id="icon-email-black-18dp-1" viewBox="0 0 18 24">
<path d="M15 6h-12c-0.825 0-1.493 0.675-1.493 1.5l-0.008 9c0 0.825 0.675 1.5 1.5 1.5h12c0.825 0 1.5-0.675 1.5-1.5v-9c0-0.825-0.675-1.5-1.5-1.5zM14.7 9.188l-5.303 3.315c-0.24 0.15-0.555 0.15-0.795 0l-5.303-3.315c-0.188-0.12-0.3-0.322-0.3-0.54 0-0.502 0.548-0.803 0.975-0.54l5.025 3.143 5.025-3.143c0.428-0.262 0.975 0.038 0.975 0.54 0 0.217-0.112 0.42-0.3 0.54z"></path>
</symbol>
<symbol id="icon-Frame-3" viewBox="0 0 24 24">
<path fill="" style="fill: var(--color1, #fff)" d="M24 2l-24 11.25 7.67 2.367 11.83-9.242-8.998 10.116 0.007 0.002-0.009-0.002v5.509l4.301-4.182 5.449 1.682 3.75-17.5z"></path>
</symbol>
<symbol id="icon-heroicons-solid_menu" viewBox="0 0 24 24">
<path d="M3.6 6.001c0-0.318 0.126-0.623 0.351-0.849s0.53-0.351 0.849-0.351h14.4c0.318 0 0.624 0.126 0.849 0.351s0.351 0.53 0.351 0.849-0.126 0.623-0.351 0.849c-0.225 0.225-0.53 0.351-0.849 0.351h-14.4c-0.318 0-0.623-0.126-0.849-0.351s-0.351-0.53-0.351-0.849z"></path>
<path d="M3.6 12.001c0-0.318 0.126-0.624 0.351-0.849s0.53-0.351 0.849-0.351h14.4c0.318 0 0.624 0.126 0.849 0.351s0.351 0.53 0.351 0.849c0 0.318-0.126 0.624-0.351 0.849s-0.53 0.351-0.849 0.351h-14.4c-0.318 0-0.623-0.126-0.849-0.351s-0.351-0.53-0.351-0.849z"></path>
<path d="M3.6 18.001c0-0.318 0.126-0.624 0.351-0.849s0.53-0.351 0.849-0.351h14.4c0.318 0 0.624 0.126 0.849 0.351s0.351 0.53 0.351 0.849c0 0.318-0.126 0.624-0.351 0.849s-0.53 0.351-0.849 0.351h-14.4c-0.318 0-0.623-0.126-0.849-0.351s-0.351-0.53-0.351-0.849z"></path>
</symbol>
  </defs>
</svg>